<svg xmlns="http://www.w3.org/2000/svg" version="1.1" xmlns:xlink="http://www.w3.org/1999/xlink" xmlns:svgjs="http://svgjs.dev/svgjs" width="2000" height="2952" viewBox="0 0 2000 2952"><g transform="matrix(1,0,0,1,-1.744524132584047,-4.761290322580635)"><svg viewBox="0 0 168 248" data-background-color="#ffffff" preserveAspectRatio="xMidYMid meet" height="2952" width="2000" xmlns="http://www.w3.org/2000/svg" xmlns:xlink="http://www.w3.org/1999/xlink"><g id="tight-bounds" transform="matrix(1,0,0,1,0.14654002713706404,0.4000000000000057)"><svg viewBox="0 0 167.7069199457259 247.2" height="247.2" width="167.7069199457259"><g><svg viewBox="0 0 167.7069199457259 247.2" height="247.2" width="167.7069199457259"><g><svg viewBox="0 0 167.7069199457259 247.2" height="247.2" width="167.7069199457259"><g id="textblocktransform"><svg viewBox="0 0 167.7069199457259 247.2" height="247.2" width="167.7069199457259" id="textblock"><g><svg viewBox="0 0 167.7069199457259 247.2" height="247.2" width="167.7069199457259"><g transform="matrix(1,0,0,1,0,0)"><svg width="167.7069199457259" viewBox="4.39 -35.99 24.419999999999998 35.99" height="247.2" data-palette-color="#6c4c95"><path d="M4.39 0L4.39-35.99 10.25-35.99 10.25 0 4.39 0ZM20.61-14.16L28.81 0 22.61 0 15.82-13.04Q15.67-13.04 15.5-13.01 15.33-12.99 14.99-12.99 14.65-12.99 13.99-12.99 13.33-12.99 12.26-12.99L12.26-12.99 12.26-17.29 15.58-17.29Q16.65-17.29 17.72-17.65 18.8-18.02 19.68-18.85 20.56-19.68 21.09-21.17 21.63-22.66 21.63-24.85L21.63-24.85Q21.63-25.73 21.39-26.88 21.14-28.03 20.39-29.08 19.63-30.13 18.26-30.83 16.89-31.54 14.65-31.54L14.65-31.54 12.26-31.54 12.26-35.99 14.75-35.99Q17.04-35.99 19.29-35.25 21.53-34.52 23.32-33.06 25.1-31.59 26.2-29.52 27.29-27.44 27.29-24.85L27.29-24.85Q27.29-20.95 25.49-18.21 23.68-15.48 20.61-14.16L20.61-14.16Z" opacity="1" transform="matrix(1,0,0,1,0,0)" fill="#6c4c95" class="wordmark-text-0" data-fill-palette-color="primary" id="text-0"></path></svg></g></svg></g></svg></g></svg></g><g></g></svg></g><defs></defs></svg><rect width="167.7069199457259" height="247.2" fill="none" stroke="none" visibility="hidden"></rect></g></svg></g></svg>